<svg width="26" height="25" viewBox="0 0 26 25" fill="none" xmlns="http://www.w3.org/2000/svg">
<path d="M12.8203 24.7617C6.11719 24.7617 0.597656 19.2422 0.597656 12.5391C0.597656 5.84766 6.11719 0.316406 12.8086 0.316406C19.5117 0.316406 25.043 5.84766 25.043 12.5391C25.043 19.2422 19.5234 24.7617 12.8203 24.7617ZM12.8203 22.6641C16.9453 22.6641 20.5312 20.1328 22.1016 16.5586C21.457 16.3711 20.8242 16.125 20.2031 15.8438L19.9922 16.2305C19.8281 16.5352 19.4297 16.6289 19.1367 16.4648C18.8438 16.3008 18.7383 15.9141 18.9023 15.6094L19.1133 15.2461C18.5625 14.918 18.0469 14.543 17.5664 14.1211L17.2734 14.4141C17.0156 14.6602 16.6289 14.6367 16.4062 14.4141C16.1367 14.1562 16.1367 13.7695 16.3828 13.5352L16.6641 13.2539C16.2188 12.7734 15.8203 12.2578 15.457 11.6953L15.0234 11.9414C14.7188 12.1289 14.3438 12 14.1914 11.707C14.0156 11.4141 14.0977 11.0273 14.4023 10.8633L14.8359 10.6172C14.5195 9.99609 14.2617 9.36328 14.0625 8.70703L13.5469 8.84766C13.1953 8.94141 12.8789 8.73047 12.8086 8.40234C12.7148 8.08594 12.8789 7.73438 13.2305 7.64062L13.7695 7.5C13.6641 6.91406 13.6055 6.31641 13.582 5.71875L13.1719 5.70703C12.8203 5.70703 12.5508 5.42578 12.5625 5.09766C12.5742 4.73438 12.8438 4.46484 13.1953 4.45312L13.6172 4.46484C13.6641 3.79688 13.7695 3.12891 13.9336 2.47266C13.5703 2.4375 13.1953 2.41406 12.8086 2.41406C8.70703 2.41406 5.12109 4.93359 3.55078 8.50781C4.18359 8.68359 4.80469 8.91797 5.40234 9.21094L5.58984 8.85938C5.75391 8.55469 6.14062 8.46094 6.45703 8.64844C6.76172 8.80078 6.86719 9.16406 6.69141 9.46875L6.50391 9.80859C7.00781 10.125 7.48828 10.4766 7.93359 10.8633L8.33203 10.4648C8.56641 10.2188 8.95312 10.2305 9.21094 10.4883C9.44531 10.7109 9.48047 11.0859 9.21094 11.3555L8.84766 11.7305C9.31641 12.2227 9.73828 12.7617 10.1133 13.3359L10.5469 13.1016C10.8398 12.9258 11.2148 13.0195 11.3906 13.3477C11.5664 13.6172 11.4961 14.0156 11.168 14.1914L10.7461 14.4258C11.0508 15.0117 11.2852 15.6211 11.4844 16.2422L11.8711 16.1367C12.1992 16.043 12.5391 16.2305 12.6328 16.582C12.7266 16.9219 12.5273 17.2617 12.1992 17.3438L11.7891 17.4492C11.9062 18.082 11.9766 18.7148 11.9883 19.3594H12.4219C12.7734 19.3711 13.043 19.6523 13.043 19.9922C13.043 20.332 12.7617 20.625 12.4102 20.6133L11.9531 20.6016C11.9062 21.2812 11.7891 21.9492 11.625 22.5938C12.0234 22.6406 12.4219 22.6641 12.8203 22.6641ZM16.9453 10.8398L16.6875 10.9805C16.9805 11.4375 17.3086 11.8594 17.6602 12.2461L17.9414 11.9648C18.1992 11.707 18.5859 11.7305 18.8086 11.9648C19.0547 12.1875 19.0898 12.5742 18.832 12.8555L18.5625 13.125C18.9492 13.4648 19.3594 13.7695 19.7812 14.0391L19.9805 13.6875C20.1445 13.3828 20.5195 13.2773 20.8242 13.4531C21.1172 13.6289 21.2344 13.9922 21.0586 14.3086L20.8828 14.6367C21.4219 14.8945 21.9844 15.1055 22.5703 15.2695C22.8164 14.4023 22.9453 13.4883 22.9453 12.5391C22.9453 7.85156 19.6523 3.84375 15.2812 2.71875C15.1289 3.30469 15.0352 3.89062 14.9883 4.5H15.3867C15.7383 4.51172 16.0195 4.80469 15.9961 5.14453C15.9961 5.49609 15.7266 5.75391 15.3867 5.75391L14.9766 5.74219C15 6.21094 15.0469 6.67969 15.1406 7.14844L15.3633 7.08984C15.7148 6.99609 16.043 7.21875 16.1133 7.53516C16.207 7.85156 16.043 8.19141 15.6797 8.29688L15.4336 8.35547C15.5977 8.88281 15.8086 9.39844 16.0664 9.91406L16.3242 9.76172C16.6172 9.57422 17.0156 9.70312 17.168 9.99609C17.3438 10.3359 17.2266 10.6758 16.9453 10.8398ZM10.207 20.5781C9.87891 20.5664 9.59766 20.2969 9.59766 19.9453C9.59766 19.6055 9.87891 19.3242 10.2305 19.3242L10.5938 19.3359C10.582 18.8203 10.5234 18.3164 10.418 17.8125L10.0547 17.9062C9.72656 18 9.39844 17.8008 9.30469 17.4492C9.21094 17.1211 9.41016 16.7812 9.73828 16.6875L10.1016 16.5938C9.94922 16.1016 9.75 15.6094 9.50391 15.1289L9.24609 15.2812C8.91797 15.4453 8.57812 15.3281 8.41406 15.0352C8.22656 14.7539 8.30859 14.3438 8.625 14.1797L8.87109 14.0391C8.56641 13.5703 8.22656 13.1367 7.85156 12.7383L7.66406 12.9258C7.40625 13.1836 7.04297 13.1719 6.78516 12.9141C6.52734 12.6914 6.51562 12.293 6.77344 12.0352L6.94922 11.8594C6.58594 11.5547 6.21094 11.2734 5.82422 11.0273L5.61328 11.4023C5.4375 11.7305 5.08594 11.8008 4.78125 11.6367C4.46484 11.4727 4.35938 11.0977 4.53516 10.7812L4.73438 10.418C4.19531 10.1602 3.64453 9.94922 3.08203 9.78516C2.82422 10.6641 2.69531 11.5898 2.69531 12.5391C2.69531 17.2031 5.94141 21.1992 10.2773 22.3359C10.4297 21.7617 10.5234 21.1758 10.5703 20.5781H10.207Z" fill="white"/>
</svg>
