<svg width="26" height="21" viewBox="0 0 26 21" fill="none" xmlns="http://www.w3.org/2000/svg">
<path d="M12.6367 20.2422C5.59375 20.2422 0.0976562 17.043 0.0976562 13.0586V6.67188C0.0976562 6.64844 0.0976562 6.625 0.0976562 6.60156C0.0976562 3.33203 5.64062 0.835938 12.6367 0.835938C19.6328 0.835938 25.1875 3.33203 25.1875 6.60156C25.1875 6.625 25.1875 6.64844 25.1875 6.67188V13.0586C25.1875 17.043 19.6797 20.2422 12.6367 20.2422ZM12.6367 10.0352C18.3672 10.0352 22.7148 8.48828 22.7148 6.60156C22.7148 4.77344 18.3789 3.30859 12.6367 3.30859C6.89453 3.30859 2.55859 4.77344 2.55859 6.60156C2.55859 8.48828 6.89453 10.0352 12.6367 10.0352ZM12.6367 12.5195C8.47656 12.5195 4.83203 11.6172 2.55859 10.1758V13.0586C2.55859 15.6602 6.33203 17.7578 12.6367 17.7578C18.9414 17.7578 22.7148 15.6602 22.7148 13.0586V10.1758C20.4297 11.6172 16.7852 12.5195 12.6367 12.5195Z" fill="white"/>
</svg>
