<svg width="19" height="23" viewBox="0 0 19 23" fill="none" xmlns="http://www.w3.org/2000/svg">
<path d="M9.51758 2.8125C9.24219 2.8125 9.00488 2.71582 8.80566 2.52246C8.60645 2.32324 8.50684 2.08301 8.50684 1.80176C8.50684 1.52637 8.60645 1.29199 8.80566 1.09863C9.01074 0.899414 9.24805 0.799805 9.51758 0.799805C9.79883 0.799805 10.0361 0.899414 10.2295 1.09863C10.4229 1.29199 10.5195 1.52637 10.5195 1.80176C10.5195 2.08887 10.4229 2.3291 10.2295 2.52246C10.042 2.71582 9.80469 2.8125 9.51758 2.8125ZM5.27246 5.25586C4.99707 5.25586 4.75977 5.15918 4.56055 4.96582C4.36719 4.7666 4.27051 4.52637 4.27051 4.24512C4.27051 3.97559 4.37012 3.74121 4.56934 3.54199C4.76855 3.34277 5.00293 3.24316 5.27246 3.24316C5.55371 3.24316 5.79102 3.34277 5.98438 3.54199C6.18359 3.73535 6.2832 3.96973 6.2832 4.24512C6.2832 4.53223 6.18652 4.77246 5.99316 4.96582C5.7998 5.15918 5.55957 5.25586 5.27246 5.25586ZM13.7539 5.25586C13.4785 5.25586 13.2412 5.15918 13.042 4.96582C12.8486 4.7666 12.752 4.52637 12.752 4.24512C12.752 3.97559 12.8516 3.74121 13.0508 3.54199C13.25 3.34277 13.4844 3.24316 13.7539 3.24316C14.0352 3.24316 14.2725 3.34277 14.4658 3.54199C14.665 3.73535 14.7646 3.96973 14.7646 4.24512C14.7646 4.53223 14.668 4.77246 14.4746 4.96582C14.2812 5.15918 14.041 5.25586 13.7539 5.25586ZM1.03613 7.73438C0.760742 7.73438 0.523438 7.6377 0.324219 7.44434C0.130859 7.24512 0.0341797 7.00488 0.0341797 6.72363C0.0341797 6.4541 0.130859 6.21973 0.324219 6.02051C0.523438 5.82129 0.760742 5.72168 1.03613 5.72168C1.31738 5.72168 1.55469 5.82129 1.74805 6.02051C1.94141 6.21387 2.03809 6.44824 2.03809 6.72363C2.03809 7.01074 1.94141 7.25098 1.74805 7.44434C1.56055 7.6377 1.32324 7.73438 1.03613 7.73438ZM9.51758 8.06836C9.14844 8.06836 8.83203 7.93652 8.56836 7.67285C8.30469 7.40918 8.17285 7.09277 8.17285 6.72363C8.17285 6.36035 8.30469 6.04688 8.56836 5.7832C8.83789 5.51953 9.1543 5.3877 9.51758 5.3877C9.88672 5.3877 10.2002 5.51953 10.458 5.7832C10.7217 6.04688 10.8535 6.36035 10.8535 6.72363C10.8535 7.10449 10.7246 7.42383 10.4668 7.68164C10.209 7.93945 9.89258 8.06836 9.51758 8.06836ZM17.9639 7.73438C17.6826 7.73438 17.4453 7.6377 17.252 7.44434C17.0586 7.24512 16.9619 7.00488 16.9619 6.72363C16.9619 6.4541 17.0615 6.21973 17.2607 6.02051C17.46 5.82129 17.6943 5.72168 17.9639 5.72168C18.2451 5.72168 18.4824 5.82129 18.6758 6.02051C18.875 6.21387 18.9746 6.44824 18.9746 6.72363C18.9746 7.01074 18.8779 7.25098 18.6846 7.44434C18.4912 7.6377 18.251 7.73438 17.9639 7.73438ZM5.27246 10.5293C4.90332 10.5293 4.58691 10.3975 4.32324 10.1338C4.06543 9.87012 3.93652 9.55371 3.93652 9.18457C3.93652 8.82129 4.06836 8.50781 4.33203 8.24414C4.5957 7.97461 4.90918 7.83984 5.27246 7.83984C5.64746 7.83984 5.96387 7.97168 6.22168 8.23535C6.48535 8.49902 6.61719 8.81543 6.61719 9.18457C6.61719 9.56543 6.48828 9.88477 6.23047 10.1426C5.97266 10.4004 5.65332 10.5293 5.27246 10.5293ZM13.7539 10.5293C13.3848 10.5293 13.0684 10.3975 12.8047 10.1338C12.5469 9.87012 12.418 9.55371 12.418 9.18457C12.418 8.82129 12.5498 8.50781 12.8135 8.24414C13.0771 7.97461 13.3906 7.83984 13.7539 7.83984C14.123 7.83984 14.4395 7.97168 14.7031 8.23535C14.9668 8.49902 15.0986 8.81543 15.0986 9.18457C15.0986 9.55957 14.9697 9.87891 14.7119 10.1426C14.4541 10.4004 14.1348 10.5293 13.7539 10.5293ZM1.03613 12.665C0.760742 12.665 0.523438 12.5684 0.324219 12.375C0.130859 12.1758 0.0341797 11.9355 0.0341797 11.6543C0.0341797 11.3789 0.130859 11.1416 0.324219 10.9424C0.523438 10.7432 0.760742 10.6436 1.03613 10.6436C1.31738 10.6436 1.55469 10.7432 1.74805 10.9424C1.94141 11.1357 2.03809 11.373 2.03809 11.6543C2.03809 11.9355 1.94141 12.1758 1.74805 12.375C1.55469 12.5684 1.31738 12.665 1.03613 12.665ZM9.51758 13.2188C9.23047 13.2188 8.9668 13.1484 8.72656 13.0078C8.49219 12.8613 8.30469 12.6709 8.16406 12.4365C8.02344 12.2021 7.95312 11.9414 7.95312 11.6543C7.95312 11.373 8.02344 11.1152 8.16406 10.8809C8.31055 10.6406 8.50098 10.4502 8.73535 10.3096C8.96973 10.1631 9.23047 10.0898 9.51758 10.0898C9.80469 10.0898 10.0654 10.1602 10.2998 10.3008C10.54 10.4414 10.7305 10.6318 10.8711 10.8721C11.0176 11.1064 11.0908 11.3672 11.0908 11.6543C11.0908 12.0938 10.9355 12.4658 10.625 12.7705C10.3203 13.0693 9.95117 13.2188 9.51758 13.2188ZM17.9639 12.665C17.6826 12.665 17.4453 12.5684 17.252 12.375C17.0586 12.1758 16.9619 11.9355 16.9619 11.6543C16.9619 11.3789 17.0615 11.1416 17.2607 10.9424C17.46 10.7432 17.6943 10.6436 17.9639 10.6436C18.2451 10.6436 18.4824 10.7432 18.6758 10.9424C18.875 11.1357 18.9746 11.373 18.9746 11.6543C18.9746 11.9355 18.8779 12.1758 18.6846 12.375C18.4912 12.5684 18.251 12.665 17.9639 12.665ZM5.27246 15.4688C4.90332 15.4688 4.58691 15.3369 4.32324 15.0732C4.06543 14.8096 3.93652 14.4932 3.93652 14.124C3.93652 13.7607 4.06836 13.4473 4.33203 13.1836C4.5957 12.9141 4.90918 12.7793 5.27246 12.7793C5.64746 12.7793 5.96387 12.9111 6.22168 13.1748C6.48535 13.4385 6.61719 13.7549 6.61719 14.124C6.61719 14.499 6.48828 14.8184 6.23047 15.082C5.97266 15.3398 5.65332 15.4688 5.27246 15.4688ZM13.7539 15.4688C13.3848 15.4688 13.0684 15.3369 12.8047 15.0732C12.5469 14.8096 12.418 14.4932 12.418 14.124C12.418 13.7607 12.5498 13.4473 12.8135 13.1836C13.0771 12.9141 13.3906 12.7793 13.7539 12.7793C14.1289 12.7793 14.4453 12.9111 14.7031 13.1748C14.9668 13.4385 15.0986 13.7549 15.0986 14.124C15.0986 14.499 14.9697 14.8184 14.7119 15.082C14.4541 15.3398 14.1348 15.4688 13.7539 15.4688ZM1.03613 17.5781C0.754883 17.5781 0.517578 17.4814 0.324219 17.2881C0.130859 17.0947 0.0341797 16.8574 0.0341797 16.5762C0.0341797 16.3008 0.133789 16.0664 0.333008 15.873C0.532227 15.6738 0.766602 15.5742 1.03613 15.5742C1.31738 15.5742 1.55469 15.6709 1.74805 15.8643C1.94141 16.0576 2.03809 16.2949 2.03809 16.5762C2.03809 16.8633 1.94141 17.1035 1.74805 17.2969C1.56055 17.4844 1.32324 17.5781 1.03613 17.5781ZM9.51758 17.9209C9.14844 17.9209 8.83203 17.7891 8.56836 17.5254C8.30469 17.2617 8.17285 16.9453 8.17285 16.5762C8.17285 16.2129 8.30469 15.8994 8.56836 15.6357C8.83789 15.3721 9.1543 15.2402 9.51758 15.2402C9.88672 15.2402 10.2002 15.3721 10.458 15.6357C10.7217 15.8936 10.8535 16.207 10.8535 16.5762C10.8535 16.9512 10.7246 17.2705 10.4668 17.5342C10.209 17.792 9.89258 17.9209 9.51758 17.9209ZM17.9639 17.5781C17.6826 17.5781 17.4453 17.4814 17.252 17.2881C17.0586 17.0947 16.9619 16.8574 16.9619 16.5762C16.9619 16.3008 17.0586 16.0664 17.252 15.873C17.4512 15.6738 17.6885 15.5742 17.9639 15.5742C18.2451 15.5742 18.4824 15.6709 18.6758 15.8643C18.875 16.0576 18.9746 16.2949 18.9746 16.5762C18.9746 16.8633 18.8779 17.1035 18.6846 17.2969C18.4912 17.4844 18.251 17.5781 17.9639 17.5781ZM5.27246 20.0566C4.99707 20.0566 4.75977 19.96 4.56055 19.7666C4.36719 19.5732 4.27051 19.3389 4.27051 19.0635C4.27051 18.7822 4.37012 18.542 4.56934 18.3428C4.76855 18.1494 5.00293 18.0527 5.27246 18.0527C5.55371 18.0527 5.79102 18.1494 5.98438 18.3428C6.18359 18.542 6.2832 18.7822 6.2832 19.0635C6.2832 19.3447 6.18652 19.5791 5.99316 19.7666C5.7998 19.96 5.55957 20.0566 5.27246 20.0566ZM13.7539 20.0566C13.4785 20.0566 13.2412 19.96 13.042 19.7666C12.8486 19.5732 12.752 19.3389 12.752 19.0635C12.752 18.7822 12.8516 18.542 13.0508 18.3428C13.25 18.1494 13.4844 18.0527 13.7539 18.0527C14.0352 18.0527 14.2725 18.1494 14.4658 18.3428C14.665 18.542 14.7646 18.7822 14.7646 19.0635C14.7646 19.3447 14.668 19.5791 14.4746 19.7666C14.2812 19.96 14.041 20.0566 13.7539 20.0566ZM9.51758 22.5088C9.24219 22.5088 9.00488 22.4092 8.80566 22.21C8.60645 22.0166 8.50684 21.7822 8.50684 21.5068C8.50684 21.2314 8.60645 20.9941 8.80566 20.7949C9.01074 20.5957 9.24805 20.4961 9.51758 20.4961C9.79883 20.4961 10.0361 20.5928 10.2295 20.7861C10.4229 20.9854 10.5195 21.2256 10.5195 21.5068C10.5195 21.7881 10.4229 22.0254 10.2295 22.2188C10.042 22.4121 9.80469 22.5088 9.51758 22.5088Z" fill="#999999"/>
</svg>
