<svg width="15" height="20" viewBox="0 0 15 20" fill="none" xmlns="http://www.w3.org/2000/svg">
<path d="M7.07812 19.4873C5.66016 19.4873 4.42383 19.2324 3.36914 18.7227C2.31445 18.2188 1.49414 17.5098 0.908203 16.5957C0.322266 15.6758 0.0292969 14.6035 0.0292969 13.3789C0.0292969 12.7344 0.0791016 12.166 0.178711 11.6738C0.28418 11.1758 0.413086 10.7334 0.56543 10.3467C0.717773 9.9541 0.870117 9.58496 1.02246 9.23926C1.18066 8.89355 1.30957 8.54785 1.40918 8.20215C1.50879 7.85645 1.55859 7.48437 1.55859 7.08594C1.55859 6.86914 1.54688 6.65234 1.52344 6.43555C1.50586 6.21289 1.49707 6.03418 1.49707 5.89941C1.49707 5.6709 1.56152 5.48926 1.69043 5.35449C1.81934 5.21973 1.98633 5.15234 2.19141 5.15234C2.49023 5.15234 2.78906 5.2373 3.08789 5.40723C3.39258 5.57715 3.6709 5.82324 3.92285 6.14551C4.1748 6.46777 4.37988 6.85742 4.53809 7.31445L4.13379 7.41113C4.25098 7.2002 4.32422 7.01562 4.35352 6.85742C4.38281 6.69336 4.39746 6.52637 4.39746 6.35645C4.39746 5.79395 4.29492 5.26074 4.08984 4.75684C3.89062 4.24707 3.63281 3.76074 3.31641 3.29785C3 2.8291 2.66016 2.37793 2.29688 1.94434C2.19727 1.83301 2.12109 1.71582 2.06836 1.59277C2.01562 1.46387 1.98926 1.33496 1.98926 1.20605C1.98926 0.883789 2.12402 0.640625 2.39355 0.476562C2.66309 0.3125 3.02637 0.230469 3.4834 0.230469C4.2627 0.230469 5.08594 0.324219 5.95312 0.511719C6.82031 0.699219 7.68164 0.989258 8.53711 1.38184C9.39258 1.77441 10.2041 2.27539 10.9717 2.88477C11.7451 3.48828 12.4307 4.20898 13.0283 5.04688C13.626 5.87891 14.0977 6.83105 14.4434 7.90332C14.7891 8.97559 14.9619 10.1738 14.9619 11.498C14.9619 12.6934 14.7744 13.7832 14.3994 14.7676C14.0244 15.7461 13.4883 16.5869 12.791 17.29C12.0938 17.9932 11.2617 18.5352 10.2949 18.916C9.33398 19.2969 8.26172 19.4873 7.07812 19.4873ZM7.16602 18.0107C8.41406 18.0107 9.50684 17.7354 10.4443 17.1846C11.3818 16.6338 12.1113 15.8691 12.6328 14.8906C13.1543 13.9062 13.415 12.7607 13.415 11.4541C13.415 10.3408 13.2598 9.29785 12.9492 8.3252C12.6387 7.34668 12.1875 6.45605 11.5957 5.65332C11.0098 4.85059 10.2979 4.15625 9.45996 3.57031C8.62793 2.98437 7.68164 2.52441 6.62109 2.19043C5.56641 1.85645 4.41797 1.67188 3.17578 1.63672L3.50977 1.25C3.9668 1.68945 4.35938 2.1875 4.6875 2.74414C5.02148 3.29492 5.27637 3.88672 5.45215 4.51953C5.63379 5.14648 5.72461 5.79102 5.72461 6.45312C5.72461 6.76953 5.69238 7.10645 5.62793 7.46387C5.56348 7.82129 5.46973 8.1582 5.34668 8.47461C5.22949 8.78516 5.08887 9.04004 4.9248 9.23926C4.76074 9.43848 4.5791 9.53809 4.37988 9.53809C4.28027 9.53809 4.19824 9.50879 4.13379 9.4502C4.0752 9.38574 4.03418 9.29492 4.01074 9.17773C3.92285 8.79102 3.81445 8.44238 3.68555 8.13184C3.55664 7.81543 3.40137 7.53418 3.21973 7.28809C3.04395 7.04199 2.84473 6.83398 2.62207 6.66406L2.89453 6.38281C2.92969 6.50586 2.95898 6.6377 2.98242 6.77832C3.01172 6.91895 3.02637 7.06836 3.02637 7.22656C3.02637 7.72461 2.97656 8.16992 2.87695 8.5625C2.77734 8.95508 2.65137 9.32715 2.49902 9.67871C2.35254 10.0244 2.20312 10.376 2.05078 10.7334C1.89844 11.0908 1.77246 11.4834 1.67285 11.9111C1.57324 12.3389 1.52344 12.8281 1.52344 13.3789C1.52344 14.3047 1.75781 15.1133 2.22656 15.8047C2.69531 16.4961 3.35449 17.0352 4.2041 17.4219C5.05371 17.8145 6.04102 18.0107 7.16602 18.0107ZM7.28906 16.7803C6.48047 16.7803 5.82715 16.5576 5.3291 16.1123C4.83691 15.667 4.59082 15.0811 4.59082 14.3545C4.59082 13.9736 4.64648 13.6484 4.75781 13.3789C4.86914 13.1094 4.99805 12.8662 5.14453 12.6494C5.29102 12.4268 5.42578 12.21 5.54883 11.999C5.67773 11.7881 5.75977 11.5479 5.79492 11.2783C5.80078 11.2256 5.82129 11.1934 5.85645 11.1816C5.89746 11.1641 5.93848 11.1729 5.97949 11.208C6.17871 11.3896 6.34277 11.5889 6.47168 11.8057C6.60645 12.0225 6.72656 12.2598 6.83203 12.5176C7.05469 12.1836 7.20703 11.7236 7.28906 11.1377C7.37109 10.5459 7.37402 9.91016 7.29785 9.23047C7.28613 9.17188 7.29785 9.12793 7.33301 9.09863C7.36816 9.06934 7.41504 9.06641 7.47363 9.08984C8.10059 9.38281 8.62793 9.76953 9.05566 10.25C9.48926 10.7246 9.81445 11.252 10.0312 11.832C10.248 12.4062 10.3564 12.9834 10.3564 13.5635C10.3564 14.1436 10.2422 14.6797 10.0137 15.1719C9.78516 15.6582 9.44238 16.0479 8.98535 16.3408C8.53418 16.6338 7.96875 16.7803 7.28906 16.7803Z" fill="#999999"/>
</svg>
