<svg width="25" height="25" viewBox="0 0 25 25" fill="none" xmlns="http://www.w3.org/2000/svg">
<path d="M12.3203 24.7617C5.61719 24.7617 0.0976562 19.2422 0.0976562 12.5391C0.0976562 5.84766 5.61719 0.316406 12.3086 0.316406C19.0117 0.316406 24.543 5.84766 24.543 12.5391C24.543 19.2422 19.0234 24.7617 12.3203 24.7617ZM13.0938 8.4375L16.1406 10.793L19.1406 9.58594L20.1719 6.19922C19.0352 4.79297 17.5352 3.70312 15.8359 3.05859L13.0938 5.27344V8.4375ZM5.5 9.58594L8.5 10.793L11.5469 8.4375V5.29688L8.78125 3.05859C7.08203 3.70312 5.59375 4.79297 4.46875 6.1875L5.5 9.58594ZM2.19531 12.5391C2.19531 14.543 2.79297 16.418 3.82422 18L7.51562 17.9531L9.20312 15.7852L8.07812 12.2812L4.92578 11.0039L2.19531 12.5391ZM22.4453 12.5391L19.7148 11.0039L16.5625 12.2812L15.4258 15.832L17.1133 18L20.793 18.0586C21.8359 16.4648 22.4453 14.5664 22.4453 12.5391ZM12.3203 22.6641C13.3047 22.6641 14.2539 22.5234 15.1562 22.2539L15.918 18.9609L14.3477 16.957H10.2461L8.71094 18.9141L9.48438 22.2539C10.3867 22.5234 11.3359 22.6641 12.3203 22.6641Z" fill="white"/>
</svg>
