<svg width="25" height="25" viewBox="0 0 25 25" fill="none" xmlns="http://www.w3.org/2000/svg">
<path d="M12.3203 24.7617C5.61719 24.7617 0.0976562 19.2422 0.0976562 12.5391C0.0976562 5.84766 5.61719 0.316406 12.3086 0.316406C19.0117 0.316406 24.543 5.84766 24.543 12.5391C24.543 19.2422 19.0234 24.7617 12.3203 24.7617ZM15.332 5.12109C16.832 5.12109 18.3203 5.30859 19.7148 5.67188C17.9688 3.78516 15.5195 2.56641 12.8125 2.42578C11.6992 3.12891 11.1133 4.07812 11.1133 5.37891C11.1133 5.46094 11.1133 5.54297 11.125 5.63672C12.4727 5.29688 13.8906 5.12109 15.332 5.12109ZM9.61328 5.37891C9.61328 4.32422 9.94141 3.375 10.5039 2.57812C9.74219 2.71875 9.00391 2.95312 8.3125 3.24609C8.10156 4.01953 8.03125 5.19141 8.16016 6.64453C8.65234 6.43359 9.14453 6.23438 9.66016 6.05859C9.625 5.83594 9.61328 5.61328 9.61328 5.37891ZM4.85547 5.73047C5.34766 6.31641 5.67578 7.16016 5.82812 7.89844C6.14453 7.71094 6.44922 7.52344 6.77734 7.34766C6.625 6.12891 6.60156 5.0625 6.67188 4.16016C6.00391 4.60547 5.39453 5.14453 4.85547 5.73047ZM15.332 6.62109C14.0312 6.62109 12.7773 6.77344 11.5703 7.05469C13.2695 10.1133 19.3867 11.7773 21.9297 15.7266C22.2695 14.7305 22.4453 13.6523 22.4453 12.5391C22.4453 10.8164 22 9.17578 21.2148 7.73438C19.3633 6.99609 17.418 6.62109 15.332 6.62109ZM4.43359 8.64844C4.41016 8.15625 4.21094 7.40625 3.90625 6.9375C3.14453 8.07422 2.60547 9.375 2.34766 10.7695C3.00391 10.0781 3.69531 9.44531 4.44531 8.87109C4.44531 8.80078 4.44531 8.71875 4.43359 8.64844ZM8.35938 8.19141C9.00391 12.0703 10.9141 17.3203 14.875 22.3359C17.5469 21.6328 19.7969 19.8398 21.1445 17.4844C19.4102 13.3945 12.0273 11.6367 10.082 7.48828C9.49609 7.6875 8.92188 7.92188 8.35938 8.19141ZM12.3203 22.6641C12.6133 22.6641 12.9062 22.6523 13.1992 22.6289C9.63672 17.8711 7.75 12.8789 7.01172 8.90625C6.64844 9.12891 6.29688 9.36328 5.94531 9.60938C5.91016 13.5 4.70312 17.5195 6.09766 20.4961C7.82031 21.8555 9.98828 22.6641 12.3203 22.6641ZM2.21875 13.2422C2.34766 15.082 2.98047 16.8047 3.98828 18.2578C3.75391 15.8438 4.21094 13.2305 4.38672 10.8633C3.60156 11.5781 2.875 12.375 2.21875 13.2422Z" fill="white"/>
</svg>
