<svg width="21" height="19" viewBox="0 0 21 19" fill="none" xmlns="http://www.w3.org/2000/svg">
<path d="M10.7861 4.55664C10.9971 4.55664 11.1758 4.63281 11.3223 4.78516C11.4746 4.93164 11.5508 5.11035 11.5508 5.32129V11.2363L10.7334 8.73145L13.5898 12.5811C13.7363 12.7686 13.8008 12.9678 13.7832 13.1787C13.7656 13.3896 13.6689 13.5566 13.4932 13.6797C13.2998 13.8145 13.0977 13.8643 12.8867 13.8291C12.6816 13.7939 12.5 13.6738 12.3418 13.4688L10.2412 10.7002C10.165 10.6006 10.1094 10.5039 10.0742 10.4102C10.0391 10.3105 10.0215 10.2051 10.0215 10.0938V5.32129C10.0215 5.11035 10.0947 4.93164 10.2412 4.78516C10.3936 4.63281 10.5752 4.55664 10.7861 4.55664ZM11.1201 18.7334C10.1709 18.7334 9.25098 18.584 8.36035 18.2852C7.47559 17.9922 6.6582 17.5762 5.9082 17.0371C5.16406 16.5039 4.51953 15.8857 3.97461 15.1826C3.78125 14.9482 3.69922 14.7051 3.72852 14.4531C3.75781 14.2012 3.87207 14.002 4.07129 13.8555C4.28809 13.7031 4.51367 13.6533 4.74805 13.7061C4.98242 13.7588 5.19043 13.8877 5.37207 14.0928C5.81152 14.6729 6.32715 15.1768 6.91895 15.6045C7.5166 16.0264 8.16699 16.3516 8.87012 16.5801C9.5791 16.8145 10.3291 16.9346 11.1201 16.9404C12.1279 16.9463 13.0713 16.7588 13.9502 16.3779C14.835 16.0029 15.6084 15.4844 16.2705 14.8223C16.9385 14.1543 17.46 13.3809 17.835 12.502C18.2158 11.6172 18.4062 10.668 18.4062 9.6543C18.4062 8.64648 18.2158 7.70312 17.835 6.82422C17.46 5.93945 16.9385 5.16602 16.2705 4.50391C15.6084 3.83594 14.835 3.31445 13.9502 2.93945C13.0713 2.56445 12.1279 2.37695 11.1201 2.37695C10.1064 2.37695 9.16016 2.56445 8.28125 2.93945C7.4082 3.30859 6.6377 3.82422 5.96973 4.48633C5.30176 5.14844 4.77734 5.91895 4.39648 6.79785C4.02148 7.6709 3.83105 8.61133 3.8252 9.61914H2.03223C2.03809 8.37695 2.27832 7.21094 2.75293 6.12109C3.22754 5.03125 3.88379 4.07031 4.72168 3.23828C5.55957 2.40625 6.52344 1.75586 7.61328 1.28711C8.70898 0.8125 9.87793 0.575195 11.1201 0.575195C12.3623 0.575195 13.5312 0.8125 14.627 1.28711C15.7227 1.76172 16.6865 2.41797 17.5186 3.25586C18.3564 4.08789 19.0127 5.05176 19.4873 6.14746C19.9619 7.24316 20.1992 8.41211 20.1992 9.6543C20.1992 10.8965 19.9619 12.0654 19.4873 13.1611C19.0127 14.2568 18.3564 15.2236 17.5186 16.0615C16.6865 16.8994 15.7227 17.5527 14.627 18.0215C13.5312 18.4961 12.3623 18.7334 11.1201 18.7334ZM0.977539 7.86133H5.31934C5.54199 7.86133 5.70898 7.91406 5.82031 8.01953C5.9375 8.11914 5.99316 8.24805 5.9873 8.40625C5.98145 8.55859 5.91992 8.72266 5.80273 8.89844L3.66699 11.8604C3.52051 12.0596 3.34766 12.1621 3.14844 12.168C2.94922 12.168 2.77344 12.0654 2.62109 11.8604L0.485352 8.89844C0.368164 8.72852 0.306641 8.56445 0.300781 8.40625C0.294922 8.24805 0.347656 8.11914 0.458984 8.01953C0.576172 7.91406 0.749023 7.86133 0.977539 7.86133Z" fill="#999999"/>
</svg>
