<svg width="28" height="27" viewBox="0 0 28 27" fill="none" xmlns="http://www.w3.org/2000/svg">
<path d="M1.1875 25.668C0.53125 25.0117 0.53125 24.0391 1.1875 23.3945L5.60547 18.9648C6.12109 18.4492 6.83594 18.3438 7.43359 18.6367C9.8125 15.9414 10.0703 14.043 10.1406 10.8086C10.1875 8.38281 10.9844 5.88672 12.9766 3.89453C16.3867 0.484375 21.543 0.0976562 24.4961 3.05078C27.4609 6.01562 27.0742 11.1484 23.6523 14.582C21.6602 16.5742 19.1758 17.3242 16.7266 17.418C13.4922 17.5586 11.5938 17.7578 8.91016 20.1367C9.16797 20.7227 9.05078 21.4023 8.54688 21.9062L4.12891 26.3359C3.47266 26.9922 2.5 26.9922 1.84375 26.3359L1.1875 25.668ZM17.582 3.37891L18.1328 3.91797L18.9883 3.0625C18.5195 3.10938 18.0508 3.21484 17.582 3.37891ZM20.418 3.14453L21.2852 4.01172L21.6953 3.60156C21.2852 3.39062 20.8633 3.23828 20.418 3.14453ZM18.7305 4.52734L19.75 5.54688L20.6875 4.60938L19.668 3.58984L18.7305 4.52734ZM15.6016 4.43359L16.6094 5.44141L17.5234 4.52734L16.7383 3.73047C16.3633 3.92969 15.9766 4.16406 15.6016 4.43359ZM22.9844 4.5625C22.8086 4.38672 22.6211 4.22266 22.4219 4.07031L21.8828 4.60938L22.9375 5.66406L23.4766 5.125C23.3359 4.9375 23.1719 4.75 22.9844 4.5625ZM14.4766 5.40625C14.3359 5.55859 14.1836 5.71094 14.0547 5.86328L15.1211 6.92969L16 6.05078L14.9336 4.98438C14.7812 5.11328 14.6289 5.25391 14.4766 5.40625ZM17.2188 6.05078L18.2383 7.07031L19.1523 6.14453L18.1328 5.125L17.2188 6.05078ZM20.3477 6.14453L21.4141 7.19922L22.3398 6.26172L21.2852 5.20703L20.3477 6.14453ZM23.5469 6.27344L24.4023 7.14062C24.3203 6.69531 24.168 6.27344 23.957 5.86328L23.5469 6.27344ZM12.8008 7.66797L13.5977 8.46484L14.5234 7.53906L13.5156 6.53125C13.2344 6.90625 13 7.28125 12.8008 7.66797ZM15.7305 7.53906L16.7383 8.55859L17.6289 7.66797L16.6094 6.64844L15.7305 7.53906ZM18.8359 7.66797L19.8906 8.72266L20.8047 7.80859L19.75 6.75391L18.8359 7.66797ZM22.0117 7.79688L23.0312 8.81641L23.957 7.87891L22.9492 6.87109L22.0117 7.79688ZM14.1953 9.0625L15.2148 10.082L16.1406 9.15625L15.1211 8.13672L14.1953 9.0625ZM17.3477 9.15625L18.4023 10.2109L19.2812 9.33203L18.2266 8.26562L17.3477 9.15625ZM20.4883 9.32031L21.5078 10.3398L22.4219 9.42578L21.4023 8.40625L20.4883 9.32031ZM12.4375 8.5C12.2734 8.98047 12.168 9.46094 12.1328 9.92969L13 9.0625L12.4375 8.5ZM23.6289 9.42578L24.1797 9.97656C24.3438 9.49609 24.4492 9.02734 24.4844 8.57031L23.6289 9.42578ZM12.6719 10.5859L13.6914 11.6055L14.6172 10.6797L13.5977 9.66016L12.6719 10.5859ZM15.8125 10.6797L16.8672 11.7344L17.793 10.8203L16.7383 9.75391L15.8125 10.6797ZM19 10.8086L20.0195 11.8281L20.8984 10.9492L19.8789 9.92969L19 10.8086ZM22.1055 10.9375L23.1133 11.9453C23.3945 11.582 23.6289 11.207 23.8164 10.832L23.0195 10.0352L22.1055 10.9375ZM14.2891 12.2031L15.3438 13.2578L16.2695 12.332L15.2148 11.2773L14.2891 12.2031ZM12.2031 11.3359C12.2969 11.7812 12.4492 12.2148 12.6602 12.625L13.082 12.2148L12.2031 11.3359ZM17.4766 12.3438L18.4961 13.3516L19.4102 12.4375L18.3906 11.418L17.4766 12.3438ZM22.1406 13.0703C22.293 12.918 22.4336 12.7773 22.5625 12.625L21.4961 11.5586L20.6172 12.4258L21.6836 13.5039C21.8477 13.3633 22 13.2227 22.1406 13.0703ZM13.6328 13.9258C13.8086 14.1016 13.9961 14.2656 14.1836 14.418L14.7344 13.8672L13.6797 12.8125L13.1289 13.3633C13.2812 13.5508 13.4453 13.7383 13.6328 13.9258ZM15.9531 13.8672L16.9727 14.875L17.8867 13.9609L16.8789 12.9414L15.9531 13.8672ZM19.0938 13.9609L19.8789 14.7461C20.2656 14.5586 20.6406 14.3242 21.0156 14.043L20.0078 13.0469L19.0938 13.9609ZM14.9219 14.8867C15.332 15.1094 15.7656 15.25 16.2109 15.3438L15.3438 14.4766L14.9219 14.8867ZM12.1211 15.4375C11.8398 15.168 11.5938 14.8633 11.3945 14.5469C11.2422 15.4375 10.9375 16.293 10.3633 17.1953C11.2656 16.6211 12.1094 16.3164 13.0117 16.1523C12.6953 15.9414 12.3789 15.7188 12.1211 15.4375ZM18.4961 14.5586L17.6289 15.4141C18.0977 15.3789 18.5664 15.2734 19.0469 15.1094L18.4961 14.5586Z" fill="white"/>
</svg>
