<svg width="26" height="25" viewBox="0 0 26 25" fill="none" xmlns="http://www.w3.org/2000/svg">
<path d="M12.8203 0.304688C19.5234 0.304688 25.043 5.83594 25.043 12.5273C25.043 19.2305 19.5234 24.7617 12.832 24.7617C6.12891 24.7617 0.597656 19.2305 0.597656 12.5273C0.597656 5.83594 6.11719 0.304688 12.8203 0.304688ZM12.8203 2.40234C10.207 2.40234 7.81641 3.42188 6 5.07422C9.76172 4.24219 13.8047 5.64844 16.3594 7.3125C17.5781 5.47266 17.9883 4.01953 17.2734 3.45703C15.9258 2.78906 14.4141 2.40234 12.8203 2.40234ZM13.1367 13.5703C13.3477 14.9766 13.7344 16.4883 14.2852 17.8008C20.625 13.3359 21.7031 8.66016 21.3633 7.125C20.7891 6.22266 20.0742 5.42578 19.2539 4.74609C18.8555 7.26562 16.3125 10.6875 13.1367 13.5703ZM11.9883 12.2344C13.3008 11.0508 14.4258 9.84375 15.3281 8.73047C12.293 6.85547 7.64062 5.55469 3.98438 7.61719C3.35156 8.74219 2.92969 9.99609 2.76562 11.3203C5.09766 10.125 8.54297 10.8281 11.9883 12.2344ZM22.9453 12.5273C22.9453 11.7422 22.8516 10.9688 22.6758 10.2305C21.8086 12.8438 19.6172 16.2422 15.082 19.3711C15.8203 20.543 16.7344 21.3164 17.8242 21.3281C20.8711 19.5703 22.9453 16.2656 22.9453 12.5273ZM2.73047 13.3242C3.02344 17.1094 5.47266 20.3438 8.8125 21.8203C6.98438 19.7578 5.28516 16.5469 5.01562 12.4219C4.05469 12.4805 3.26953 12.7734 2.73047 13.3242ZM11.4023 13.9102C9.70312 13.207 8.14453 12.7266 6.79688 12.5156C7.27734 18.4688 10.8984 21.9844 12.8789 22.6641C13.7695 22.6523 14.625 22.5352 15.4453 22.3125C13.1836 20.707 11.8594 16.8633 11.4023 13.9102Z" fill="white"/>
</svg>
